<svg width="60" height="60" viewBox="0 0 60 60" fill="none" xmlns="http://www.w3.org/2000/svg">
<path d="M48.6175 13.3625C47.5675 9.855 44.4025 7.5 40.725 7.5C36.4325 7.5 32.9 10.8025 32.5325 15H27.47C27.1 10.8025 23.565 7.5 19.26 7.5C15.5975 7.5 12.4325 9.855 11.3825 13.3625L5.105 34.2825C5.0375 34.515 5 34.755 5 35V37.5C5.0025 44.395 10.6075 50 17.5025 50C22.615 50 27.0075 46.9075 28.9425 42.5H31.0575C32.9925 46.9075 37.385 50 42.4975 50C49.3925 50 55 44.3925 55 37.4975V35C55 34.755 54.9625 34.515 54.895 34.2825L48.6175 13.3625ZM17.5025 45C13.3675 45 10 41.6325 10 37.5C10 37.31 10.0425 37.1325 10.055 36.945C10.2725 34.0325 12.13 31.58 14.7325 30.54C15.59 30.2 16.52 30 17.5 30C21.64 30 25 33.3575 25 37.5V37.5225C24.985 41.645 21.63 45 17.5025 45ZM42.4975 45C38.37 45 35.015 41.645 35 37.5225V37.5C35 33.3575 38.36 30 42.5 30C43.5325 30 44.52 30.21 45.415 30.5875C48.105 31.7275 50 34.3975 50 37.4975C50 41.6325 46.6325 45 42.4975 45Z" fill="white"/>
</svg>
