<svg width="49" height="49" viewBox="0 0 49 49" fill="none" xmlns="http://www.w3.org/2000/svg">
<path d="M19.4285 24.4287C23.8405 24.4287 27.4285 20.8407 27.4285 16.4287C27.4285 12.0167 23.8405 8.42871 19.4285 8.42871C15.0165 8.42871 11.4285 12.0167 11.4285 16.4287C11.4285 20.8407 15.0165 24.4287 19.4285 24.4287ZM22.4285 26.4287H16.4285C9.81047 26.4287 4.42847 31.8107 4.42847 38.4287V40.4287H6.42847H8.42847H30.4285H32.4285H34.4285V38.4287C34.4285 31.8107 29.0465 26.4287 22.4285 26.4287Z" fill="white"/>
<path d="M33.6364 22.5247C34.8444 20.4667 35.3804 18.0686 35.1384 15.6446C34.7804 12.0766 32.7884 8.92265 29.5324 6.76465L27.3224 10.0966C29.5604 11.5806 30.9224 13.6947 31.1584 16.0447C31.3784 18.2547 30.5984 20.4326 29.0144 22.0166L26.6304 24.4007L29.8664 25.3507C38.3304 27.8307 38.4284 36.3427 38.4284 36.4287H42.4284C42.4284 32.8507 40.5164 25.8587 33.6364 22.5247Z" fill="white"/>
</svg>
