<svg width="48" height="48" viewBox="0 0 48 48" fill="none" xmlns="http://www.w3.org/2000/svg">
<path fill-rule="evenodd" clip-rule="evenodd" d="M4.12753 16.2325L20.9875 7.03249C22.1875 6.39249 23.6275 6.39249 24.8275 7.03249L43.8675 17.4125C44.5075 17.7725 44.9075 18.4325 44.9075 19.1725V31.9925C44.9075 33.0925 44.0075 33.9925 42.9075 33.9925C41.8075 33.9925 40.9075 33.0925 40.9075 31.9925V20.1725L24.8275 28.9525C23.6275 29.6125 22.1875 29.6125 20.9875 28.9525L4.12753 19.7525C2.74753 18.9925 2.74753 16.9925 4.12753 16.2325ZM8.90753 31.9725V26.3525L20.9875 32.9525C22.1875 33.6125 23.6275 33.6125 24.8275 32.9525L36.9075 26.3525V31.9725C36.9075 33.4325 36.1075 34.7925 34.8275 35.4925L24.8275 40.9525C23.6275 41.6125 22.1875 41.6125 20.9875 40.9525L10.9875 35.4925C9.70753 34.7925 8.90753 33.4325 8.90753 31.9725Z" fill="white"/>
</svg>
