<svg width="48" height="48" viewBox="0 0 48 48" fill="none" xmlns="http://www.w3.org/2000/svg">
<path fill-rule="evenodd" clip-rule="evenodd" d="M38.1037 9.19175C37.4437 8.27175 37.5637 7.03175 38.3637 6.23175C39.3437 5.25175 41.0237 5.33175 41.8637 6.43175C47.3837 13.7318 47.3637 23.3918 41.8637 30.4718C41.0237 31.5718 39.3637 31.6517 38.3837 30.6717L38.3237 30.6117C37.5437 29.8317 37.4037 28.5917 38.0437 27.6917C42.0237 22.0117 42.0437 14.6718 38.1037 9.19175ZM10.0037 18.4517C10.0037 14.0335 13.5854 10.4517 18.0037 10.4517C22.4219 10.4517 26.0037 14.0335 26.0037 18.4517C26.0037 22.87 22.4219 26.4517 18.0037 26.4517C13.5854 26.4517 10.0037 22.87 10.0037 18.4517ZM2.00366 38.4518C2.00366 33.1318 12.6637 30.4518 18.0037 30.4518C23.3437 30.4518 34.0037 33.1318 34.0037 38.4518V40.4518C34.0037 41.5518 33.1037 42.4518 32.0037 42.4518H4.00366C2.90366 42.4518 2.00366 41.5518 2.00366 40.4518V38.4518ZM30.9437 20.9117C30.5637 21.8517 30.7237 22.9118 31.4437 23.6318L31.5037 23.6917C32.6637 24.8518 34.6437 24.6118 35.4037 23.1518C36.9237 20.2518 36.9237 16.8518 35.3637 13.8317C34.6037 12.3518 32.6037 12.0718 31.4237 13.2518L31.4037 13.2718C30.7237 13.9718 30.5637 15.0518 30.9437 15.9918C31.5837 17.5718 31.5837 19.3317 30.9437 20.9117Z" fill="white"/>
</svg>
