<svg width="48" height="48" viewBox="0 0 48 48" fill="none" xmlns="http://www.w3.org/2000/svg">
<path d="M40.32 13.68C34.56 4.8 22.8 2.16 13.68 7.68C4.79996 13.2 1.91996 25.2 7.67996 34.08L8.15996 34.8L6.23996 42L13.44 40.08L14.16 40.56C17.28 42.24 20.64 43.2 24 43.2C27.6 43.2 31.2 42.24 34.32 40.32C43.2 34.56 45.84 22.8 40.32 13.68ZM35.28 32.16C34.32 33.6 33.12 34.56 31.44 34.8C30.48 34.8 29.28 35.28 24.48 33.36C20.4 31.44 17.04 28.32 14.64 24.72C13.2 23.04 12.48 20.88 12.24 18.72C12.24 16.8 12.96 15.12 14.16 13.92C14.64 13.44 15.12 13.2 15.6 13.2H16.8C17.28 13.2 17.76 13.2 18 14.16C18.48 15.36 19.68 18.24 19.68 18.48C19.92 18.72 19.92 19.2 19.68 19.44C19.92 19.92 19.68 20.4 19.44 20.64C19.2 20.88 18.96 21.36 18.72 21.6C18.24 21.84 18 22.32 18.24 22.8C19.2 24.24 20.4 25.68 21.6 26.88C23.04 28.08 24.48 29.04 26.16 29.76C26.64 30 27.12 30 27.36 29.52C27.6 29.04 28.8 27.84 29.28 27.36C29.76 26.88 30 26.88 30.48 27.12L34.32 29.04C34.8 29.28 35.28 29.52 35.52 29.76C35.76 30.48 35.76 31.44 35.28 32.16Z" fill="#53B656"/>
</svg>
