<svg width="49" height="35" viewBox="0 0 49 35" fill="none" xmlns="http://www.w3.org/2000/svg">
<path d="M44.75 0.625H4.25C3.35489 0.625 2.49645 0.980579 1.86351 1.61351C1.23058 2.24645 0.875 3.10489 0.875 4V31C0.875 31.8951 1.23058 32.7535 1.86351 33.3865C2.49645 34.0194 3.35489 34.375 4.25 34.375H44.75C45.6451 34.375 46.5035 34.0194 47.1365 33.3865C47.7694 32.7535 48.125 31.8951 48.125 31V4C48.125 3.10489 47.7694 2.24645 47.1365 1.61351C46.5035 0.980579 45.6451 0.625 44.75 0.625ZM41.0375 4L24.5 15.4412L7.9625 4H41.0375ZM4.25 31V5.53562L23.5381 18.8837C23.8206 19.0797 24.1562 19.1847 24.5 19.1847C24.8438 19.1847 25.1794 19.0797 25.4619 18.8837L44.75 5.53562V31H4.25Z" fill="#F8C800"/>
</svg>
