<svg width="19" height="19" viewBox="0 0 19 19" fill="none" xmlns="http://www.w3.org/2000/svg">
<path d="M9.37202 5.7088C6.91891 5.7088 4.93164 7.69703 4.93164 10.1492C4.93164 12.6023 6.91891 14.5905 9.37202 14.5905C11.8232 14.5905 13.8124 12.6023 13.8124 10.1492C13.8124 7.69703 11.8232 5.7088 9.37202 5.7088ZM9.37202 13.0345C7.77856 13.0345 6.48669 11.7427 6.48669 10.1501C6.48669 8.55668 7.77856 7.26577 9.37202 7.26577C10.9655 7.26577 12.2554 8.55668 12.2554 10.1501C12.2554 11.7427 10.9655 13.0345 9.37202 13.0345Z" fill="#F8C800"/>
<path d="M13.8696 5.74234C14.4415 5.74234 14.9051 5.27877 14.9051 4.70693C14.9051 4.13508 14.4415 3.67151 13.8696 3.67151C13.2978 3.67151 12.8342 4.13508 12.8342 4.70693C12.8342 5.27877 13.2978 5.74234 13.8696 5.74234Z" fill="#F8C800"/>
<rect x="1.18076" y="1.23777" width="16.506" height="16.506" rx="2.58599" stroke="#F8C800" stroke-width="1.73833"/>
</svg>
