<svg width="30" height="31" viewBox="0 0 30 31" fill="none" xmlns="http://www.w3.org/2000/svg">
<path d="M24 5H23H21H9H7H6C5.447 5 5 5.447 5 6V7V8.938V10H5.893C6.889 10 7.813 10.681 7.973 11.664C8.177 12.917 7.215 14 6 14H5V15.062V17V18C5 18.553 5.447 19 6 19H7H9H21H23H24C24.553 19 25 18.553 25 18V17V15.062V14C25 14 24.553 14 24 14C22.785 14 21.823 12.917 22.027 11.664C22.187 10.681 23.111 10 24.107 10H25V8.938V7V6C25 5.447 24.553 5 24 5ZM12 9C12.553 9 13 9.447 13 10C13 10.553 12.553 11 12 11C11.447 11 11 10.553 11 10C11 9.447 11.447 9 12 9ZM11.2 15.4L17.2 7.4L18.8 8.6L12.8 16.6L11.2 15.4ZM18 15C17.447 15 17 14.553 17 14C17 13.447 17.447 13 18 13C18.553 13 19 13.447 19 14C19 14.553 18.553 15 18 15Z" fill="#EF586E"/>
<g filter="url(#filter0_d_253_3915)">
<path d="M4.82629 22.1525L24.9788 1.99998" stroke="white" stroke-linecap="round"/>
<path d="M4.82629 2.00021L24.9788 22.1528" stroke="white" stroke-linecap="round"/>
</g>
<defs>
<filter id="filter0_d_253_3915" x="0.326294" y="1.49997" width="29.1526" height="29.1528" filterUnits="userSpaceOnUse" color-interpolation-filters="sRGB">
<feFlood flood-opacity="0" result="BackgroundImageFix"/>
<feColorMatrix in="SourceAlpha" type="matrix" values="0 0 0 0 0 0 0 0 0 0 0 0 0 0 0 0 0 0 127 0" result="hardAlpha"/>
<feOffset dy="4"/>
<feGaussianBlur stdDeviation="2"/>
<feComposite in2="hardAlpha" operator="out"/>
<feColorMatrix type="matrix" values="0 0 0 0 0 0 0 0 0 0 0 0 0 0 0 0 0 0 0.25 0"/>
<feBlend mode="normal" in2="BackgroundImageFix" result="effect1_dropShadow_253_3915"/>
<feBlend mode="normal" in="SourceGraphic" in2="effect1_dropShadow_253_3915" result="shape"/>
</filter>
</defs>
</svg>
