<svg width="48" height="48" viewBox="0 0 48 48" fill="none" xmlns="http://www.w3.org/2000/svg">
<path fill-rule="evenodd" clip-rule="evenodd" d="M29.38 3.85144C31.18 5.57144 32.78 7.49144 34.18 9.55144C37.84 14.9714 40 21.4514 40 28.4314C40 37.2714 32.84 44.4314 24 44.4314C15.16 44.4314 8 37.2714 8 28.4314C8 23.3514 9.36 18.5914 11.74 14.5114C12.06 13.9314 12.4 13.3914 12.76 12.8514C13.24 12.1114 14.34 12.3714 14.56 13.2114C14.68 13.6514 14.76 13.8914 14.96 14.2914C16.06 16.9514 18.58 18.8114 21.66 18.8114C25.78 18.8114 28.48 15.4714 28.48 11.3514C28.48 9.13144 28.08 6.65144 27.7 4.77144C27.5 3.81144 28.68 3.17144 29.38 3.85144ZM16.98 32.1514C16.98 35.6314 19.86 38.4314 23.42 38.4314C28.72 38.4314 33.02 34.1314 33 28.8314C33 26.6914 32.76 24.5714 32.3 22.5314C32.14 21.7914 31.22 21.5514 30.66 22.0714C28.56 24.0514 25.54 25.3114 22.6 25.9114C19.08 26.6314 16.98 28.9114 16.98 32.1514Z" fill="white"/>
</svg>
