<svg width="1200" height="23" viewBox="0 0 1200 23" fill="none" xmlns="http://www.w3.org/2000/svg">
<mask id="mask0_2_8" style="mask-type:alpha" maskUnits="userSpaceOnUse" x="0" y="0" width="261" height="23">
<path d="M0 0H130.5H245.044L261 23H0V0Z" fill="url(#paint0_linear_2_8)"/>
</mask>
<g mask="url(#mask0_2_8)">
<path d="M0 0H600H1200V23H0V0Z" fill="url(#paint1_linear_2_8)"/>
</g>
<mask id="mask1_2_8" style="mask-type:alpha" maskUnits="userSpaceOnUse" x="253" y="0" width="237" height="23">
<path d="M490 23H367.5H267L253 0H476L490 23Z" fill="url(#paint2_linear_2_8)"/>
</mask>
<g mask="url(#mask1_2_8)">
<path d="M0 0H600H1200V23H0V0Z" fill="url(#paint3_linear_2_8)"/>
</g>
<mask id="mask2_2_8" style="mask-type:alpha" maskUnits="userSpaceOnUse" x="482" y="0" width="237" height="23">
<path d="M719 23H596.5H496L482 0H705L719 23Z" fill="url(#paint4_linear_2_8)"/>
</mask>
<g mask="url(#mask2_2_8)">
<path d="M0 0H600H1200V23H0V0Z" fill="url(#paint5_linear_2_8)"/>
</g>
<mask id="mask3_2_8" style="mask-type:alpha" maskUnits="userSpaceOnUse" x="711" y="0" width="237" height="23">
<path d="M948 23H825.5H725L711 0H934L948 23Z" fill="url(#paint6_linear_2_8)"/>
</mask>
<g mask="url(#mask3_2_8)">
<path d="M0 0H600H1200V23H0V0Z" fill="url(#paint7_linear_2_8)"/>
</g>
<mask id="mask4_2_8" style="mask-type:alpha" maskUnits="userSpaceOnUse" x="939" y="0" width="261" height="23">
<path d="M1200 23H1069.5H954.956L939 0H1200V23Z" fill="url(#paint8_linear_2_8)"/>
</mask>
<g mask="url(#mask4_2_8)">
<path d="M0 0H600H1200V23H0V0Z" fill="url(#paint9_linear_2_8)"/>
</g>
<defs>
<linearGradient id="paint0_linear_2_8" x1="7.80502" y1="1.59081e-05" x2="254.33" y2="72.3329" gradientUnits="userSpaceOnUse">
<stop stop-color="#5D10AA"/>
<stop offset="1" stop-color="#1FA1DB"/>
</linearGradient>
<linearGradient id="paint1_linear_2_8" x1="35.8851" y1="1.59405e-05" x2="472.446" y2="588.925" gradientUnits="userSpaceOnUse">
<stop stop-color="#5D10AA"/>
<stop offset="1" stop-color="#1FA1DB"/>
</linearGradient>
<linearGradient id="paint2_linear_2_8" x1="475.152" y1="22.9998" x2="254.832" y2="-33.7184" gradientUnits="userSpaceOnUse">
<stop stop-color="#5D10AA"/>
<stop offset="1" stop-color="#1FA1DB"/>
</linearGradient>
<linearGradient id="paint3_linear_2_8" x1="35.8851" y1="1.59405e-05" x2="472.446" y2="588.925" gradientUnits="userSpaceOnUse">
<stop stop-color="#5D10AA"/>
<stop offset="1" stop-color="#1FA1DB"/>
</linearGradient>
<linearGradient id="paint4_linear_2_8" x1="704.152" y1="22.9998" x2="483.832" y2="-33.7184" gradientUnits="userSpaceOnUse">
<stop stop-color="#1FA1DB"/>
<stop offset="1" stop-color="#5D10AA"/>
</linearGradient>
<linearGradient id="paint5_linear_2_8" x1="35.8851" y1="1.59405e-05" x2="472.446" y2="588.925" gradientUnits="userSpaceOnUse">
<stop stop-color="#5D10AA"/>
<stop offset="1" stop-color="#1FA1DB"/>
</linearGradient>
<linearGradient id="paint6_linear_2_8" x1="933.152" y1="22.9998" x2="712.832" y2="-33.7184" gradientUnits="userSpaceOnUse">
<stop stop-color="#5D10AA"/>
<stop offset="1" stop-color="#1FA1DB"/>
</linearGradient>
<linearGradient id="paint7_linear_2_8" x1="35.8851" y1="1.59405e-05" x2="472.446" y2="588.925" gradientUnits="userSpaceOnUse">
<stop stop-color="#5D10AA"/>
<stop offset="1" stop-color="#1FA1DB"/>
</linearGradient>
<linearGradient id="paint8_linear_2_8" x1="1192.19" y1="23" x2="945.67" y2="-49.3329" gradientUnits="userSpaceOnUse">
<stop stop-color="#1FA1DB"/>
<stop offset="1" stop-color="#5D10AA"/>
</linearGradient>
<linearGradient id="paint9_linear_2_8" x1="35.8851" y1="1.59405e-05" x2="472.446" y2="588.925" gradientUnits="userSpaceOnUse">
<stop stop-color="#5D10AA"/>
<stop offset="1" stop-color="#1FA1DB"/>
</linearGradient>
</defs>
</svg>
